<svg width="390" height="328" fill="none" xmlns="http://www.w3.org/2000/svg">
  <path fill="#fff" fill-opacity=".2" d="M0 0h390v328H0z"/>
  <g clip-path="url(#clip0)">
    <path opacity=".35" fill-rule="evenodd" clip-rule="evenodd" d="M270.597 227.794c-3.166-42.503-180.06-125.084-213.077-84.941-33.018 40.143-1.64 115.778 67.22 135.341 68.86 19.563 149.023-7.897 145.857-50.4z" fill="#C6B9B9" fill-opacity=".5"/>
    <path d="M51.088 110.387c12.37 0 22.399-5.304 22.399-11.846s-10.029-11.845-22.4-11.845c-12.37 0-22.398 5.303-22.398 11.845 0 6.542 10.028 11.846 22.399 11.846z" fill="#F2F2F2"/>
    <path fill-rule="evenodd" clip-rule="evenodd" d="M77.176 106.702c0-14.538-11.68-26.324-26.088-26.324C36.68 80.378 25 92.163 25 106.702" fill="#DDE3E9"/>
    <path d="M52.405 0H49.77v84.235h2.635V0z" fill="#DDE3E9"/>
    <g opacity=".7">
      <path d="M91.932 83.709c9.247 0 16.743-4.28 16.743-9.56s-7.496-9.56-16.743-9.56c-9.246 0-16.742 4.28-16.742 9.56s7.496 9.56 16.742 9.56z" fill="#F2F2F2"/>
      <path fill-rule="evenodd" clip-rule="evenodd" d="M111.432 80.735c0-11.733-8.73-21.244-19.5-21.244s-19.5 9.511-19.5 21.244" fill="#DDE3E9"/>
      <path d="M93.513 0h-2.635v71.6h2.635V0z" fill="#DDE3E9"/>
    </g>
    <path fill-rule="evenodd" clip-rule="evenodd" d="M33.339 195.938c1.51-.184 3.12-.119 4.525.476 2.985 1.266 3.834 4.789 3.793 7.653-.044 3.082-.7 6.449 1.646 8.932 1.079 1.142 2.42 2.016 3.479 3.179a15.019 15.019 0 012.676 4.19c1.207 2.805 1.8 6.102.696 9.044-.972 2.59-3.417 4.927-2.888 7.872.55 3.072 3.651 5.421 5.59 7.709 2.194 2.59 4.214 5.9 4.545 9.296.319 3.254-1.1 6.546-3.276 9.006-4.349 4.916-10.885 7.326-17.476 7.311-2.798-.007-5.966-.133-8.381-1.635-.746-.464-1.14-.985-1.584-1.709-.398-.65-.923-1.072-1.531-1.532-1.337-1.009-2.302-2.369-2.918-3.892-2.391-5.913-.48-13.229 2.868-18.481.793-1.244 1.443-2.441 1.057-3.924-.402-1.548-1.39-2.944-2.265-4.275-.863-1.315-1.85-2.57-2.525-3.992-.707-1.489-.906-3.049-.781-4.68.235-3.062 1.558-5.888 3.432-8.35 1.804-2.373 3.923-4.642 3.928-7.751.005-3.294-2.2-6.225-1.26-9.574.389-1.387 1.17-2.81 2.428-3.641 1.208-.798 2.802-1.059 4.222-1.232z" fill="#DDE3E9"/>
    <path fill-rule="evenodd" clip-rule="evenodd" d="M32.352 201.205c.029-.443.554-.708.967-.593.545.152.534.661.52 1.113-.044 1.392.158 2.744.492 4.094.696 2.807 1.983 5.394 3.002 8.09 1.018 2.694 1.496 5.476.898 8.327-.563 2.688-1.447 5.306-2.023 7.998-.508 2.372-1.049 4.873-.275 7.239.744 2.278 2.39 4.133 3.574 6.191 2.453 4.261 3.541 8.987 3.687 13.851.067 2.259.006 4.538-.518 6.754-.302 1.275-.708 2.999-1.802 3.88-.505.406-1.367.546-1.792-.055-.399-.564-.05-1.437.078-2.039.548-2.602.658-5.262.527-7.905-.127-2.559-.43-5.115-1.237-7.559-.748-2.269-1.885-4.307-3.224-6.292-1.363-2.022-2.781-4.049-3.345-6.445-.572-2.434-.107-4.911.515-7.298.658-2.525 1.52-4.978 2.41-7.435.868-2.394 1.175-4.659.696-7.165-.946-4.95-3.48-9.596-3.15-14.751z" fill="#C5CFD6"/>
    <path fill-rule="evenodd" clip-rule="evenodd" d="M73.2 201.945c1.868.566 3.724 1.481 5.055 2.914 2.832 3.049 1.963 7.657.4 11.022-1.683 3.622-4.232 7.263-2.795 11.419.66 1.911 1.772 3.641 2.398 5.566.67 2.058.959 4.2.922 6.348-.068 3.943-1.118 8.151-3.969 11.056-2.51 2.558-6.614 4.052-7.553 7.809-.98 3.92 1.415 8.309 2.478 12.022 1.203 4.203 1.82 9.167.413 13.355-1.349 4.015-4.754 7.17-8.609 8.949-7.7 3.554-16.643 3.007-24.365-.436-3.279-1.462-6.928-3.257-8.966-6.289-.63-.937-.816-1.757-.953-2.844-.123-.975-.516-1.748-.986-2.607-1.033-1.888-1.446-3.998-1.362-6.119.324-8.236 6.437-15.895 13.142-20.366 1.589-1.059 2.984-2.138 3.317-4.092.347-2.039-.074-4.204-.395-6.232-.317-2.005-.81-4.001-.85-6.033-.04-2.129.551-4.078 1.56-5.941 1.896-3.499 4.943-6.153 8.444-8.092 3.372-1.868 7.058-3.451 8.708-7.125 1.75-3.893.714-8.504 3.588-11.977 1.19-1.438 2.859-2.715 4.775-3.044 1.838-.316 3.846.204 5.603.737z" fill="#DDE3E9"/>
    <path fill-rule="evenodd" clip-rule="evenodd" d="M69.384 208.383c.265-.509 1.018-.548 1.441-.195.557.465.279 1.061.024 1.59-.78 1.625-1.254 3.332-1.57 5.106-.658 3.689-.51 7.425-.732 11.152-.222 3.723-1.122 7.268-3.315 10.331-2.068 2.889-4.475 5.526-6.56 8.412-1.837 2.543-3.78 5.222-4.116 8.429-.324 3.087.627 6.145.934 9.203.634 6.33-.572 12.497-2.952 18.333-1.105 2.71-2.371 5.378-4.146 7.727-1.022 1.352-2.4 3.181-4.141 3.651-.803.217-1.886-.068-2.067-1.003-.17-.877.696-1.728 1.16-2.373 2.005-2.795 3.529-5.887 4.76-9.086 1.194-3.098 2.18-6.282 2.519-9.6.314-3.078.052-6.087-.472-9.138-.534-3.109-1.13-6.252-.532-9.385.606-3.182 2.449-5.871 4.428-8.373 2.093-2.646 4.386-5.099 6.716-7.543 2.27-2.38 3.817-4.901 4.57-8.12 1.489-6.357.962-13.186 4.05-19.118z" fill="#C5CFD6"/>
    <path fill-rule="evenodd" clip-rule="evenodd" d="M15.445 225.329c3.107 0 5.838 1.645 7.72 3.979 2.202 2.733 2.647 6.07 3.542 9.326.445 1.621 1.21 3.23 2.552 4.331 1.22 1.001 2.77 1.202 4.23 1.691 2.92.978 5.276 3.333 6.207 6.207 1.136 3.506-.067 7.041.14 10.594.19 3.262 3.41 5.298 6.002 6.862 2.554 1.542 4.856 2.986 5.626 5.991.816 3.186 1.09 6.743-.041 9.891-1.882 5.241-7.389 7.549-12.71 7.907-4.829.325-10.9-.185-14.527-3.686-2.17-2.096-2.956-5.026-2.859-7.942.06-1.813.42-3.609.885-5.361.33-1.242.775-2.479.901-3.762.338-3.414-2.821-4.07-5.51-5.007-3.416-1.191-5.808-3.441-7.471-6.576-1.55-2.919-2.2-6.195-1.27-9.409a10.976 10.976 0 012.5-4.395c.514-.558 1.238-1.023 1.7-1.608.434-.547.34-1.256.19-1.896-.69-2.958-2.837-5.408-3.605-8.361-.694-2.666-.284-5.983 2.156-7.703 1.054-.743 2.354-1.064 3.642-1.073z" fill="#C5CFD6"/>
    <path fill-rule="evenodd" clip-rule="evenodd" d="M19.678 233.038c3.293 3.503 4.187 8.257 4.45 12.864.147 2.583-.006 5.308.754 7.814.65 2.145 2.174 3.785 3.745 5.334 3.163 3.119 6.69 6.291 7.615 10.805.542 2.649.176 5.386.926 8.006.682 2.381 1.882 4.721 3.343 6.732 1.175 1.62 2.707 2.86 3.993 4.37.392.46.954 1.139.792 1.789-.19.762-1.161 1.003-1.85.884-1.607-.279-2.96-1.812-4.011-2.927-1.537-1.629-2.842-3.382-3.904-5.348-1.178-2.184-2.126-4.501-2.532-6.95-.42-2.542-.21-5.19-1.171-7.629-1.617-4.104-5.537-6.526-8.371-9.725-3.531-3.985-3.005-8.946-2.643-13.849.199-2.694.396-5.736-.967-8.196-.52-.939-1.68-1.815-1.904-2.882-.204-.978.914-1.967 1.735-1.092z" fill="#AFB9C5"/>
    <path fill-rule="evenodd" clip-rule="evenodd" d="M23.19 290.612c0 20.036 3.273 30.535 20.553 30.535s20.554-10.499 20.554-30.535H23.19z" fill="#95BBC0"/>
    <path fill-rule="evenodd" clip-rule="evenodd" d="M366.791 80.863c2.847-3.112 8.332-2.91 8.163 2.465-.181 5.755-7.92 8.826-12.342 10.428.43-.194.084-5.273.302-6.145.642-2.573 2.128-4.833 3.877-6.748zm-5.625 105.768c-.833 1.546-.063.139 0 0zm18.629-84.414c2.726.776 3.918 3.552 2.935 6.126-1.171 3.064-4.947 4.435-7.827 5.3-1.303.39-8.261 2.476-7.085.762a5.888 5.888 0 00-.535.564c.059.593.111 1.186.155 1.78.048.008.092.019.143.026-.054-.003-.094-.012-.143-.016a65.438 65.438 0 01-1.11 17.79c.961-.881 2.004-1.67 3.135-2.281 3.351-1.808 11.809-1.976 9.669 4.193-2.053 5.914-9.783 3.426-14.325 4.432-1.932 7.356-4.383 14.639-7.125 21.823.33-.023.662.067.924.305 1.553-1.715 3.024-3.879 4.663-4.947 2.365-1.539 7.516-3.916 10.345-2.391 3.479 1.874 1.797 5.147-.821 6.782-3.797 2.371-9.931 2.473-14.395 2.665-.42.254-.964.315-1.396.072l-.292.018c-2.813 7.182-5.88 14.261-8.96 21.217l.159-.072c.981-1.359 2.115-2.602 3.496-3.558 3.193-2.217 7.336-3.83 11.172-2.418 3.821 1.405 6.532 5.405 4.679 9.369-3.708 7.933-17.384-1.563-20.566-.946-3.151 7.015-6.722 13.813-10.415 20.549a10.608 10.608 0 011.769-1.133c5.176-2.595 20.316-.973 16.207 8-3.58 7.82-14.401-.354-20.49-2.318-3.499 6.3-7.037 12.582-10.364 18.973 2.471-1.792 5.09-2.931 8.382-3.194 3.407-.271 9.217.097 8.869 4.924-.355 4.91-7.002 5.319-10.594 5.199-1.959-.066-6.267-1.182-9.621-1.054-5.136 10.648-8.899 21.641-10.395 33.451-.934 7.374-.912 14.855-.078 22.23.532 4.708 1.098 12.741 3.697 18.128-6.427-10.307-7.787-25.154-7.527-36.698.239-10.615 2.79-20.842 6.622-30.645-3.585-4.308-20.368-6.013-13.776-13.869 3.505-4.16 9.627-1.891 12.257 2.009 1.807 2.679 2.221 6.767 2.247 10.039a145.445 145.445 0 014.012-8.917c1.985-4.048 4.076-8.043 6.211-12.014-7.159-2.849-17.562-14.9-11.392-19.927 9.114-7.414 11.492 13.611 12.151 17.468-.201.092-.386.093-.556.007.186.304.39.628.609.949 4.096-7.574 8.323-15.081 12.257-22.735-.693-.185-2.138-1.362-3.125-1.903-2.227-1.221-4.419-2.548-6.306-4.254-2.982-2.697-6.677-7.41-2.979-11.114 4.02-4.031 8.669 1.118 10.101 4.71.99 2.485 1.222 5.12 1.812 7.703.184.806 1.946 4.075.324 3.005.26.525.42.917.504 1.207a287.478 287.478 0 002.08-4.156 1.376 1.376 0 01-.255-.378c-.473-1.053.459-1.891 1.348-1.874.89-1.861 1.761-3.734 2.596-5.624a638.647 638.647 0 005.287-12.265c-.839-.291-.876-1.132-1.687-1.473-.81-.339-2.093-.203-2.991-.462-2.259-.652-4.455-2.026-6.239-3.526-2.947-2.478-7.738-8.216-3.277-11.674 4.597-3.567 9.7 1.766 11.575 5.611.364.744 2.471 7.909 3.002 10.601 3.202-7.718 6.235-15.613 8.73-23.416-1.46.551-6.728-.797-7.874-1.278-2.795-1.173-7.711-4.254-5.034-7.934 2.382-3.267 7.434-1.836 9.902.503.405.385 2.894 4.471 3.719 6.418a166.03 166.03 0 002.698-9.786c.52-2.146.946-4.307 1.287-6.478-.301-.043-.628-.194-.964-.41-5.634 1.166-15.543-4.382-10.432-9.635 2.435-2.5 6.724-.956 9.058.764.478.352 1.869 2.514 2.978 4.214.682-7.017.532-14.108-.218-21.146-.504.066-1.029-.131-1.313-.709-3.129-.452-5.625-.871-8.497-2.96-1.785-1.298-5.323-4.473-2.423-6.703 3.774-2.903 8.944 2.494 10.521 5.529.184.352.597 1.423.963 2.409.14-.077.291-.133.447-.165a146.552 146.552 0 00-2.25-12.866c-2.611.162-7.696-11.76-6.815-14.08 1.966-5.195 6.563-.58 7.518 2.432 1.126 3.552.761 7.321-.044 10.854-.088.375-.036.338-.249-.054.05.215.04.392-.02.541.805 1.787 1.719 3.582 2.254 5.232a130.714 130.714 0 013.769 14.459 72 72 0 01.621 3.559c1.257-2.3 3.234-4.677 4.05-5.497 2.118-2.128 5.585-4.884 8.871-3.948zM313.068 312.29c.7 1.438 1.593 2.651 2.747 3.482a23.398 23.398 0 01-2.747-3.482z" fill="#D3DADF" fill-opacity=".9"/>
    <path opacity=".27" fill-rule="evenodd" clip-rule="evenodd" d="M281.404 112.478c-1.984-2.801-6.454-3.03-6.879 1.463-.455 4.812 5.501 7.934 8.92 9.59-.329-.192.483-4.401.398-5.145-.252-2.191-1.221-4.184-2.439-5.908zm-5.874 87.443c.366.963.026.086 0 0zm-6.119-70.783c-2.25.452-3.492 2.653-2.983 4.836.606 2.599 3.463 3.983 5.662 4.89.995.41 6.306 2.599 5.552 1.11.074.084.221.272.366.5-.11.483-.214.967-.312 1.453-.039.002-.075.009-.116.011.042.002.076-.003.115-.003-.975 4.85-1.327 9.766-1.004 14.699-.671-.79-1.416-1.51-2.252-2.088-2.472-1.715-9.179-2.43-8.132 2.787 1.005 5.001 7.416 3.483 10.92 4.619.756 6.179 1.933 12.333 3.351 18.425a.99.99 0 00-.767.188c-1.053-1.516-1.993-3.395-3.183-4.384-1.717-1.427-5.561-3.732-7.972-2.672-2.966 1.304-1.975 4.109-.066 5.631 2.767 2.208 7.634 2.71 11.163 3.173.307.237.732.324 1.102.154l.23.034c1.475 6.096 3.163 12.124 4.874 18.052l-.118-.07c-.636-1.184-1.406-2.283-2.403-3.163-2.303-2.04-5.426-3.649-8.626-2.75-3.188.895-5.768 3.998-4.715 7.383 2.107 6.774 13.989-.1 16.454.625 1.761 5.981 3.88 11.812 6.102 17.601a7.975 7.975 0 00-1.287-1.052c-3.841-2.486-16.05-2.185-13.736 5.471 2.018 6.672 11.489.691 16.539-.508 2.114 5.417 4.261 10.822 6.229 16.302-1.775-1.641-3.737-2.756-6.326-3.197-2.681-.455-7.34-.548-7.575 3.444-.238 4.06 5.004 4.849 7.872 4.995 1.565.08 5.109-.544 7.762-.21 2.955 9.103 4.781 18.396 4.718 28.206-.039 6.124-.851 12.273-2.296 18.278-.922 3.834-2.224 10.398-4.862 14.649 6.204-8.034 8.86-20.146 9.877-29.652.936-8.742-.008-17.323-2.015-25.642 3.308-3.297 16.833-3.555 12.424-10.461-2.345-3.659-7.453-2.211-9.958.815-1.722 2.079-2.484 5.411-2.852 8.099a117.308 117.308 0 00-2.244-7.603c-1.149-3.463-2.388-6.889-3.664-10.3 5.994-1.853 15.544-11.05 11.171-15.603-6.46-6.716-10.581 10.405-11.515 13.531a.475.475 0 00.442.043c-.18.238-.376.49-.585.739-2.454-6.505-5.018-12.964-7.335-19.524.571-.105 1.845-.974 2.687-1.352 1.9-.851 3.784-1.793 5.465-3.067 2.658-2.013 6.096-5.636 3.548-8.932-2.769-3.587-7.012.328-8.531 3.183-1.051 1.975-1.515 4.126-2.258 6.209-.232.649-1.98 3.216-.576 2.447a6.786 6.786 0 00-.529.958 229.044 229.044 0 01-1.213-3.558c.088-.079.171-.172.242-.293.489-.833-.164-1.586-.872-1.633a164.403 164.403 0 01-1.468-4.8 524.5 524.5 0 01-2.904-10.442c.699-.182.817-.871 1.499-1.095.679-.224 1.685-.025 2.426-.176 1.866-.382 3.758-1.363 5.335-2.473 2.606-1.836 7.024-6.227 3.844-9.374-3.277-3.245-7.9.791-9.799 3.823-.368.588-2.803 6.333-3.511 8.51-1.728-6.563-3.301-13.259-4.458-19.843 1.103.552 5.434-.196 6.396-.514 2.347-.773 6.583-2.971 4.844-6.179-1.547-2.848-5.716-2.016-7.926-.262-.363.29-2.776 3.479-3.638 5.023a137.329 137.329 0 01-1.108-8.228 67.543 67.543 0 01-.336-5.413c.244-.014.52-.117.81-.271 4.356 1.342 12.824-2.542 9.317-7.209-1.671-2.221-5.245-1.245-7.283.01-.418.257-1.753 1.939-2.816 3.261.203-5.814 1.074-11.632 2.417-17.367.394.088.832-.037 1.119-.494 2.536-.158 4.565-.332 7.071-1.854 1.556-.945 4.706-3.313 2.637-5.344-2.693-2.644-7.376 1.44-8.953 3.827-.183.277-.625 1.129-1.021 1.915a1.142 1.142 0 00-.338-.165 128.68 128.68 0 013.154-10.424c2.059.312 7.367-9.142 6.912-11.109-1.012-4.404-5.157-.924-6.236 1.487-1.271 2.842-1.381 5.966-1.115 8.925.03.314-.008.28.203-.028a.755.755 0 00-.041.447c-.83 1.414-1.747 2.827-2.347 4.146a115.267 115.267 0 00-4.531 11.629 61.838 61.838 0 00-.871 2.884c-.756-1.977-2.075-4.066-2.637-4.796-1.459-1.893-3.924-4.395-6.636-3.85zm30.5 177.548c-.757 1.237-1.591 2.297-2.509 3.053a31.731 31.731 0 002.509-3.053z" fill="#ACB6B6"/>
    <path fill-rule="evenodd" clip-rule="evenodd" d="M279.449 292.537c0 15.707 12.749 28.44 28.476 28.44 15.727 0 28.476-12.733 28.476-28.44" fill="#95BBC0"/>
    <g clip-path="url(#clip1)" fill-rule="evenodd" clip-rule="evenodd">
      <path d="M165.999 197.674c.858 12.684 56.153 50.029 56.476 51.077.143.466-5.594 15.187-17.212 44.163l4.834 2.034c17.819-30.688 26.271-47.667 25.356-50.937-1.31-4.682-15.611-20.082-42.902-46.202l-26.552-.135z" fill="#B28B67"/>
      <path d="M206.535 286.37l7.892 3.111c16.641-20.33 23.163-37.104 21.974-45.651-.793-5.698-15.044-21.073-42.755-46.125h-28.213c.963 29.375 52.214 51.158 52.899 52.41.686 1.251-6.06 13.512-11.797 36.255z" fill="#3E4F70"/>
      <path d="M203.485 291.915c-.987 1.249-1.601 2.233-1.842 2.951-.294.874-.588 2.201-.882 3.983l25.229 9.943c1.445-2.089 1.492-3.505.142-4.249a145.595 145.595 0 01-3.349-1.894l-9.824-10.282a.451.451 0 00-.673.012l-.009.011-1.42 1.683c-1.529.145-2.703.057-3.521-.266-.664-.261-1.484-.913-2.459-1.956a.901.901 0 00-1.392.064z" fill="#E4E4E4"/>
      <path d="M172.357 197.674l-24.633 64.03-24.209 54.132h5.712l62.491-118.162h-19.361z" fill="#997659"/>
      <path d="M123.173 313.337c-.532 1.54-.799 2.692-.799 3.456 0 .929.143 2.286.429 4.069h26.849c.698-2.498.295-3.846-1.208-4.045a135.136 135.136 0 01-3.747-.54l-12.479-6.023c-.24-.116-.521 0-.628.26l-.006.014-.802 2.107c-1.391.703-2.522 1.054-3.392 1.054-.707 0-1.683-.309-2.929-.927-.478-.237-1.043-.01-1.262.507l-.026.068z" fill="#E4E4E4"/>
      <path d="M125.701 304.591l12.692 2.577c9.813-15.621 50.882-79.676 55.385-109.494h-28.255c-15.037 21.556-30.468 91.037-39.822 106.917z" fill="#6078A7"/>
    </g>
    <g clip-path="url(#clip2)" fill-rule="evenodd" clip-rule="evenodd">
      <path d="M166.146 110c-3.49-4.265-5.852-9.491-5.457-15.347 1.137-16.874 25.944-13.983 28.088-4.645 2.148 9.356.371 19.548-2.277 25.492-.632 1.419-6.575 1.364-11.282.444l2.847 24.42h-18.176L166.146 110z" fill="#B28B67"/>
      <path d="M180.648 90.74c-2.43 1.364-4.16 3.922-6.242 7.276a4.45 4.45 0 00-1.637-.31c-2.473 0-4.477 2.012-4.477 4.495a4.49 4.49 0 001.348 3.215 68.152 68.152 0 01-3.527 4.584c-4.965-2.99-9.354-12.087-4.613-20.5 5-15.5 27.887-6.011 32.333-8.854.972 6.116-2.163 11.047-13.185 10.094z" fill="#272B2E"/>
    </g>
    <g clip-path="url(#clip3)" fill-rule="evenodd" clip-rule="evenodd">
      <path d="M212.928 172.245l22.313-11.402c3.909-4.532 7.683-7.977 11.323-10.334 1.089-.404 2.948-.525.964 2.847s-3.94 7.022-3.147 8.204c.792 1.182 3.089-.122 3.996 1.799.605 1.282-3.266 2.814-11.613 4.598l-16.711 14.909-7.125-10.621zm-90.209 3.141l12.618 2.913c-12.69 27.519-19.495 42.104-20.416 43.755-2.072 3.716-.139 10.524.575 14.11-4.48 1.213-2.713-6.633-8.382-4.994-5.175 1.495-9.562 5.332-14.387.157-.594-.636-1.028-2.625.995-3.645 5.039-2.541 12.483-7.3 13.69-9.147 1.647-2.52 6.749-16.903 15.307-43.149z" fill="#B28B67"/>
      <path d="M169.634 120.45l5.325-1.063c11.598 13.091 16.331 44.543 24.06 48.706 7.308 3.936 17.667.127 29.981-5.016l3.771 9.804c-11.188 14.084-35.023 25.984-44.684 19.191-15.447-10.861-19.013-49.652-18.453-71.622z" fill="#883A3A"/>
      <path d="M146.422 198.315h47.115c2.153 0 1.748-3.617 1.436-5.443-3.592-21.066-17.613-43.775-17.613-73.763l-13.59-2.48c-11.241 21.037-15.128 46.937-17.348 81.686z" fill="#DDE3E9"/>
      <path d="M141.722 176.986c-9.604 20.16-17.678 34.674-24.22 43.542l-9.875-2.251c6.361-45.907 24.783-79.79 55.266-101.648h5.381c12.201 48.393 15.564 80.638 10.091 96.734h-42.412c.671-11.778 2.823-24.233 5.769-36.377z" fill="#A14545"/>
    </g>
  </g>
  <defs>
    <clipPath id="clip0">
      <path fill="#fff" transform="translate(0 -30)" d="M0 0h390v388H0z"/>
    </clipPath>
    <clipPath id="clip1">
      <path fill="#fff" transform="translate(110.474 197.674)" d="M0 0h142.807v123.188H0z"/>
    </clipPath>
    <clipPath id="clip2">
      <path fill="#fff" transform="translate(119 58)" d="M0 0h103v82H0z"/>
    </clipPath>
    <clipPath id="clip3">
      <path fill="#fff" transform="translate(91 116.629)" d="M0 0h157.644v133.994H0z"/>
    </clipPath>
  </defs>
</svg>
